<svg xmlns="http://www.w3.org/2000/svg" viewBox="0 0 30 30">
  <defs>
    <clipPath id="jfin_svg__a">
      <path fill="#fff" d="M0 .5h197v32H0z"/>
    </clipPath>
    <clipPath id="jfin_svg__b">
      <path fill="#fff" d="M0 .5h197v32H0z"/>
    </clipPath>
    <clipPath id="jfin_svg__c">
      <path fill="#fff" d="M0 .5h197v32H0z"/>
    </clipPath>
  </defs>
  <path fill="#c60000" d="M10.319 31.393a16.481 16.481 0 0 0 10.499.44c3.452-1.003 6.468-3.106 8.572-5.98s3.177-6.353 3.05-9.891-1.446-6.936-3.75-9.657a1.72 1.72 0 0 0-1.174-.626 1.754 1.754 0 0 0-1.277.385 1.703 1.703 0 0 0-.615 1.166 1.673 1.673 0 0 0 .414 1.249 12.447 12.447 0 0 1 2.957 7.628 12.421 12.421 0 0 1-2.433 7.805 12.773 12.773 0 0 1-6.795 4.687c-2.732.774-5.649.63-8.288-.41a12.714 12.714 0 0 1-6.283-5.334A12.393 12.393 0 0 1 3.57 14.85c.38-2.772 1.689-5.34 3.72-7.298s4.668-3.192 7.493-3.508a1.733 1.733 0 0 0 1.123-.644 1.678 1.678 0 0 0-.274-2.352A1.746 1.746 0 0 0 14.39.67a16.35 16.35 0 0 0-8.053 3.205 15.962 15.962 0 0 0-5.212 6.836 15.723 15.723 0 0 0 .242 12.214c1.724 3.879 4.944 6.925 8.951 8.468z" clip-path="url(#jfin_svg__a)" transform="matrix(.67814 0 0 .6878 3.994 3.654)"/>
  <path d="M19.466 4.997c.375.367.852.616 1.371.716.52.1 1.057.047 1.546-.154.488-.2.904-.539 1.197-.973a2.6 2.6 0 0 0-.01-2.923 2.666 2.666 0 0 0-1.204-.965A2.716 2.716 0 0 0 20.82.554a2.688 2.688 0 0 0-1.367.726l-.014.014a2.592 2.592 0 0 0-.557 2.858c.136.316.335.603.584.845z" clip-path="url(#jfin_svg__b)" transform="matrix(.67814 0 0 .6878 3.994 3.654)"/>
  <path d="M19.01 6.9h4.944V19.9c0 2.086-.726 3.827-2.148 5.17-1.452 1.342-3.311 2.027-5.548 2.027-2.265 0-4.12-.686-5.574-2.027-1.454-1.341-2.178-3.084-2.178-5.17v-.657h4.913v.828c0 1.6 1.162 2.685 2.817 2.685s2.788-1.091 2.788-2.685v-8.888z" clip-path="url(#jfin_svg__c)" transform="matrix(.67814 0 0 .6878 3.994 3.654)"/>
</svg>
